<?xml version="1.0" encoding="UTF-8" standalone="no"?>
<svg
   viewBox="0 0 48 48"
   version="1.1"
   id="svg2"
   sodipodi:docname="gnome-settings.svg"
   xml:space="preserve"
   inkscape:version="1.4 (e7c3feb100, 2024-10-09)"
   xmlns:inkscape="http://www.inkscape.org/namespaces/inkscape"
   xmlns:sodipodi="http://sodipodi.sourceforge.net/DTD/sodipodi-0.dtd"
   xmlns="http://www.w3.org/2000/svg"
   xmlns:svg="http://www.w3.org/2000/svg"><defs
     id="defs2" /><sodipodi:namedview
     id="namedview2"
     pagecolor="#505050"
     bordercolor="#eeeeee"
     borderopacity="1"
     inkscape:showpageshadow="0"
     inkscape:pageopacity="0"
     inkscape:pagecheckerboard="0"
     inkscape:deskcolor="#505050"
     inkscape:zoom="6.2023841"
     inkscape:cx="2.5796532"
     inkscape:cy="38.291727"
     inkscape:window-width="1536"
     inkscape:window-height="808"
     inkscape:window-x="0"
     inkscape:window-y="0"
     inkscape:window-maximized="1"
     inkscape:current-layer="svg2" /><path
     d="m 24.000478,3.1017341 c -1.438796,0 -2.612284,1.1734872 -2.612284,2.6122832 v 0.6224575 c 0,1.2143042 -0.989809,2.3571781 -2.142887,2.734734 -0.06123,0.020376 -0.122464,0.030616 -0.163268,0.051018 -1.163283,0.3877595 -2.632693,0.040804 -3.346988,-0.9387919 L 15.367696,7.6732297 C 14.959527,7.1119964 14.347276,6.7344405 13.663592,6.6323968 12.979908,6.520147 12.275816,6.6834147 11.724787,7.0915892 10.551299,7.9385385 10.285991,9.5712155 11.143146,10.744703 l 0.367352,0.520416 c 0.724501,0.979606 0.591844,2.489833 -0.142865,3.469439 -0.02038,0.04083 -0.05102,0.09185 -0.09185,0.132652 -0.714295,0.989809 -2.1020707,1.571453 -3.2653544,1.193897 L 7.4083829,15.867223 c -1.3673683,-0.448986 -2.8469812,0.306126 -3.2857638,1.673494 -0.4489862,1.377572 0.295922,2.846981 1.6734939,3.295965 l 0.5816406,0.193883 c 1.1632837,0.377556 1.9286017,1.663291 1.9592124,2.877595 v 0.18367 c 0.04083,1.214312 -0.7959287,2.51025 -1.9490089,2.887806 L 5.796113,27.163305 c -1.3775719,0.448984 -2.1224801,1.928599 -1.6734939,3.295965 0.4387826,1.367368 1.9183955,2.12248 3.2857638,1.673494 L 8.0104306,31.93888 c 1.1632837,-0.377556 2.5510594,0.204098 3.2653544,1.193897 0.03062,0.04083 0.07142,0.09185 0.102035,0.132652 0.724499,0.979612 0.846952,2.489838 0.132652,3.469444 l -0.377556,0.53062 c -0.846952,1.163284 -0.591846,2.795961 0.581641,3.64291 1.163283,0.846952 2.795961,0.591847 3.64291,-0.571437 l 0.377558,-0.520414 c 0.714295,-0.989812 2.183704,-1.326551 3.336782,-0.938792 0.05102,0.02038 0.122438,0.03062 0.163268,0.05102 1.163283,0.367352 2.14289,1.510226 2.14289,2.734734 v 0.622471 c 0,1.438796 1.173484,2.612283 2.612283,2.612283 1.438796,0 2.612283,-1.173487 2.612283,-2.612283 v -0.622458 c 0,-1.224508 0.98981,-2.367381 2.142887,-2.734734 0.06123,-0.02038 0.122438,-0.04083 0.173482,-0.06123 1.15308,-0.377556 2.62249,-0.04083 3.336784,0.948996 l 0.377559,0.520414 c 0.846949,1.163283 2.479626,1.418388 3.64291,0.571437 1.163281,-0.84695 1.428592,-2.479627 0.58164,-3.64291 L 36.47005,36.734881 c -0.714298,-0.979606 -0.591847,-2.489833 0.142865,-3.469439 0.03062,-0.04083 0.06123,-0.09185 0.102036,-0.132652 0.714295,-0.989809 2.102071,-1.571453 3.265354,-1.193897 l 0.612252,0.204098 c 1.367376,0.438767 2.836785,-0.316345 3.285771,-1.683713 0.448986,-1.367366 -0.306125,-2.846981 -1.673494,-3.285761 l -0.60205,-0.193884 c -1.163289,-0.377553 -1.918403,-1.673491 -1.949014,-2.887796 0,-0.06123 0,-0.122437 0,-0.183669 -0.04083,-1.214304 0.785725,-2.500039 1.949006,-2.877595 l 0.60205,-0.193883 c 1.367369,-0.448984 2.122481,-1.918393 1.673494,-3.295965 -0.448986,-1.367369 -1.918395,-2.12248 -3.285763,-1.673494 l -0.602048,0.193883 c -1.163284,0.377556 -2.561263,-0.204097 -3.275558,-1.193897 -0.03062,-0.04083 -0.06123,-0.09185 -0.102036,-0.132651 -0.724509,-0.979614 -0.846959,-2.489841 -0.132662,-3.469447 l 0.377556,-0.520416 C 37.704761,9.5814217 37.449656,7.9385385 36.276169,7.0915892 35.714935,6.6834199 35.021047,6.5201522 34.337363,6.6221933 33.643476,6.7344431 33.031222,7.1119964 32.633259,7.6732297 L 32.2557,8.18344 C 31.541405,9.1732524 30.071996,9.5099914 28.908712,9.1324355 28.867882,9.1120597 28.806676,9.0916055 28.745444,9.0712036 27.592367,8.7038512 26.602557,7.5609773 26.602557,6.3364695 V 5.7140173 c 0,-1.438796 -1.173487,-2.6122832 -2.612283,-2.6122832 z m 0,10.4491329 c 2.275544,0 4.377614,0.714298 6.091925,1.938805 0.01019,0.02038 0.02038,0.0408 0.04083,0.06123 0.03062,0.01019 0.05102,0.02038 0.08163,0.04083 1.724514,1.265325 3.030656,3.06127 3.71434,5.16334 v 0.02038 c 0,0 0.02038,0.01019 0.02038,0.02038 0.765315,2.224521 0.408169,4.326594 0,6.418461 0,0 -0.02038,0.01019 -0.02038,0.02038 v 0.01019 c -0.683684,2.091867 -1.979619,3.887812 -3.69393,5.16334 -0.04083,0.01019 -0.07142,0.03062 -0.102036,0.05102 -0.02038,0.01019 -0.04083,0.03062 -0.05102,0.05102 -1.714334,1.224609 -3.816405,1.938907 -6.091949,1.938907 -2.234727,0 -4.295983,-0.693888 -5.979681,-1.867375 -0.05102,-0.04083 -0.11225,-0.09185 -0.163268,-0.122438 -0.03062,-0.02038 -0.06123,-0.04083 -0.09185,-0.05102 -1.704107,-1.265324 -3.000042,-3.030656 -3.673523,-5.081706 -0.01019,-0.04083 -0.02038,-0.06123 -0.03062,-0.09185 -0.01019,-0.02038 -0.02038,-0.04083 -0.03062,-0.05102 -0.744911,-2.214318 -0.387762,-4.295981 0,-6.367441 0.02038,-0.02038 0.03062,-0.03062 0.03062,-0.05102 0.01019,-0.03062 0.03062,-0.06123 0.03062,-0.102035 0.683684,-2.05105 1.979622,-3.816382 3.693933,-5.081706 0.03062,-0.01019 0.05102,-0.02038 0.07142,-0.04083 0.05102,-0.03062 0.11225,-0.08163 0.153054,-0.122438 1.69393,-1.173508 3.755186,-1.867396 5.989913,-1.867396 z m 0,0"
     fill="#222222"
     id="path1-3"
     style="fill:#ffffff;fill-opacity:1;stroke-width:2.61228" /></svg>
